<?xml version="1.0" encoding="UTF-8" standalone="no"?>
<svg width="180px" height="180px" viewBox="0 0 180 180" version="1.1" xmlns="http://www.w3.org/2000/svg" xmlns:xlink="http://www.w3.org/1999/xlink" xmlns:sketch="http://www.bohemiancoding.com/sketch/ns">
    <!-- Generator: Sketch 3.2.2 (9983) - http://www.bohemiancoding.com/sketch -->
    <title>add-circle</title>
    <desc>Created with Sketch.</desc>
    <defs></defs>
    <g id="app-screens" stroke="none" stroke-width="1" fill="none" fill-rule="evenodd" sketch:type="MSPage">
        <g id="settings-group-screen" sketch:type="MSArtboardGroup" transform="translate(-531.000000, -1065.000000)" fill="#999999">
            <g id="add-circle" sketch:type="MSLayerGroup" transform="translate(531.000000, 1065.000000)">
                <path d="M90,0 C40.5,0 0,40.5 0,90 C0,139.5 40.5,180 90,180 C139.5,180 180,139.5 180,90 C180,40.5 139.5,0 90,0 L90,0 Z M135,99 L99,99 L99,135 L81,135 L81,99 L45,99 L45,81 L81,81 L81,45 L99,45 L99,81 L135,81 L135,99 L135,99 Z" id="Shape" sketch:type="MSShapeGroup"></path>
            </g>
        </g>
    </g>
</svg>