<?xml version="1.0" encoding="UTF-8" standalone="no"?>
<svg width="120px" height="120px" viewBox="0 0 120 120" version="1.1" xmlns="http://www.w3.org/2000/svg" xmlns:xlink="http://www.w3.org/1999/xlink" xmlns:sketch="http://www.bohemiancoding.com/sketch/ns">
    <!-- Generator: Sketch 3.2.2 (9983) - http://www.bohemiancoding.com/sketch -->
    <title>Oval 3 + smile</title>
    <desc>Created with Sketch.</desc>
    <defs></defs>
    <g id="app-screens" stroke="none" stroke-width="1" fill="none" fill-rule="evenodd" sketch:type="MSPage">
        <g id="Product-Info-3" sketch:type="MSArtboardGroup" transform="translate(-561.000000, -1607.000000)">
            <g id="Oval-3-+-smile-+-30-of-your-friends-d" sketch:type="MSLayerGroup" transform="translate(293.000000, 1607.000000)">
                <g id="Oval-3-+-smile" transform="translate(268.000000, 0.000000)" sketch:type="MSShapeGroup">
                    <circle id="Oval-3" fill="#999999" cx="60" cy="60" r="60"></circle>
                    <g id="smile" transform="translate(16.666667, 16.666667)" fill="#FFFFFF">
                        <circle id="Oval" cx="28.3792063" cy="38.6966667" r="3.61730159"></circle>
                        <circle id="Oval" cx="58.2998413" cy="38.6966667" r="3.61730159"></circle>
                        <path d="M43.3333333,86.6666667 C66.8220635,86.6666667 86.6666667,66.8230952 86.6666667,43.3333333 C86.6666667,19.8435714 66.8220635,0 43.3333333,0 C19.8446032,0 0,19.8435714 0,43.3333333 C0,66.8230952 19.8446032,86.6666667 43.3333333,86.6666667 L43.3333333,86.6666667 Z M43.3333333,4.12698413 C64.5852381,4.12698413 82.5396825,22.0814286 82.5396825,43.3333333 C82.5396825,64.5852381 64.5852381,82.5396825 43.3333333,82.5396825 C22.0814286,82.5396825 4.12698413,64.5852381 4.12698413,43.3333333 C4.12698413,22.0814286 22.0814286,4.12698413 43.3333333,4.12698413 L43.3333333,4.12698413 Z" id="Shape"></path>
                        <path d="M43.6825376,66.824266 C52.3915058,66.824266 60.3256328,62.4775199 64.3865852,55.4812501 C64.9581725,54.4949009 64.6228551,53.2320437 63.6375376,52.6604564 C62.6522201,52.0888691 61.389363,52.4241866 60.8167439,53.4095041 C57.4914265,59.1387898 50.9264265,62.6972818 43.6825376,62.6972818 C36.4386487,62.6972818 29.872617,59.1387898 26.5462678,53.4095041 C25.9736487,52.4231549 24.7107916,52.0878374 23.7265058,52.6604564 C22.7401566,53.2330755 22.4058709,54.4949009 22.9774582,55.4802184 C27.0384106,62.4775199 34.9725376,66.824266 43.6825376,66.824266 L43.6825376,66.824266 Z" id="Shape" transform="translate(43.681908, 59.602609) scale(1, -1) translate(-43.681908, -59.602609) "></path>
                    </g>
                </g>
            </g>
        </g>
    </g>
</svg>