<?xml version="1.0" encoding="UTF-8" standalone="no"?>
<svg width="70px" height="83px" viewBox="0 0 70 83" version="1.1" xmlns="http://www.w3.org/2000/svg" xmlns:xlink="http://www.w3.org/1999/xlink" xmlns:sketch="http://www.bohemiancoding.com/sketch/ns">
    <!-- Generator: Sketch 3.2.2 (9983) - http://www.bohemiancoding.com/sketch -->
    <title>notifications</title>
    <desc>Created with Sketch.</desc>
    <defs></defs>
    <g id="app-screens" stroke="none" stroke-width="1" fill="none" fill-rule="evenodd" sketch:type="MSPage">
        <g id="settings-group-screen-3" sketch:type="MSArtboardGroup" transform="translate(-1124.000000, -90.000000)" fill="#FFFFFF">
            <g id="Rectangle-10-+-menu-2-+-Product-Info" sketch:type="MSLayerGroup" transform="translate(0.000000, 49.000000)">
                <g id="Rectangle-10-+-menu-2" sketch:type="MSShapeGroup">
                    <g id="notifications" transform="translate(1124.000000, 41.000000)">
                        <path d="M35,83 C39.5294118,83 43.2352941,79.265 43.2352941,74.7 L26.7647059,74.7 C26.7647059,79.265 30.4705882,83 35,83 L35,83 Z M61.7647059,58.1 L61.7647059,35.275 C61.7647059,22.41 53.1176471,12.035 41.1764706,9.13 L41.1764706,6.225 C41.1764706,2.905 38.2941176,0 35,0 C31.7058824,0 28.8235294,2.905 28.8235294,6.225 L28.8235294,9.13 C16.8823529,12.035 8.23529412,22.41 8.23529412,35.275 L8.23529412,58.1 L0,66.4 L0,70.55 L70,70.55 L70,66.4 L61.7647059,58.1 L61.7647059,58.1 Z" id="Shape"></path>
                    </g>
                </g>
            </g>
        </g>
    </g>
</svg>