<?xml version="1.0" encoding="UTF-8" standalone="no"?>
<svg width="848px" height="288px" viewBox="0 0 848 288" version="1.1" xmlns="http://www.w3.org/2000/svg" xmlns:xlink="http://www.w3.org/1999/xlink" xmlns:sketch="http://www.bohemiancoding.com/sketch/ns">
    <!-- Generator: Sketch 3.2.2 (9983) - http://www.bohemiancoding.com/sketch -->
    <title>shop-sync-logo</title>
    <desc>Created with Sketch.</desc>
    <defs></defs>
    <g id="app-screens" stroke="none" stroke-width="1" fill="none" fill-rule="evenodd" sketch:type="MSPage">
        <g id="Search-Main-3" sketch:type="MSArtboardGroup" transform="translate(-196.000000, -894.000000)" fill="#FFFFFF">
            <g id="shop-sync-logo" sketch:type="MSLayerGroup" transform="translate(196.000000, 894.000000)">
                <g id="refresh-+-shopsyn" transform="translate(2.000000, 108.000000)" sketch:type="MSShapeGroup">
                    <path d="M829.797783,53.1215681 C820.663126,43.2654697 807.613615,37.3518106 793.259154,37.3518106 C764.550232,37.3518106 741.061113,61.0064469 741.061113,89.917669 C741.061113,118.828891 764.550232,142.483527 793.259154,142.483527 C817.400748,142.483527 837.627489,125.399623 843.499768,103.059134 L829.797783,103.059134 C824.577979,118.171818 810.223517,129.342063 793.259154,129.342063 C771.727462,129.342063 754.110624,111.601086 754.110624,89.917669 C754.110624,68.2342524 771.727462,50.4932752 793.259154,50.4932752 C804.351238,50.4932752 813.485895,55.0927878 820.663126,62.3205933 L799.783909,83.3469367 L845.457195,83.3469367 L845.457195,37.3518106 L829.797783,53.1215681 L829.797783,53.1215681 Z M70.3162901,54.6234498 L54.5636671,70.4870749 C48.163161,64.1040459 42.3530801,60.9125793 37.1332499,60.9125793 C34.2747715,60.9125793 32.0377349,61.5227126 30.4220732,62.7429976 C28.8064115,63.9632825 27.9985928,65.4807936 27.9985928,67.2955764 C27.9985928,68.6723081 28.511247,69.9395081 29.5365707,71.0972143 C30.5618945,72.2549206 33.0940956,73.8350094 37.1332499,75.8375284 L46.4543286,80.5309086 C56.2725806,85.4120484 63.0147601,90.3869817 66.6810694,95.4558576 C70.3473787,100.524734 72.1805058,106.469622 72.1805058,113.290702 C72.1805058,122.364616 68.871556,129.936527 62.253557,136.006663 C55.635558,142.076798 46.7650868,145.11182 35.6418773,145.11182 C20.8523585,145.11182 9.04577686,139.292087 0.221778233,127.652446 L15.8811905,110.474674 C18.8639506,113.979082 22.3593201,116.810727 26.367404,118.969693 C30.3754879,121.128658 33.9329973,122.208125 37.0400391,122.208125 C40.3956442,122.208125 43.09873,121.394614 45.1493776,119.767567 C47.2000251,118.140521 48.2253335,116.263187 48.2253335,114.135511 C48.2253335,110.193052 44.5280093,106.344519 37.1332499,102.589796 L28.5578575,98.2718858 C12.1526769,89.9489166 3.95020971,79.5297167 3.95020971,67.0139736 C3.95020971,58.9413192 7.0416699,52.0421193 13.224683,46.3161668 C19.4076961,40.5902143 27.3149988,37.727281 36.9468283,37.727281 C43.5337569,37.727281 49.7322122,39.1822143 55.5423803,42.0921246 C61.3525484,45.0020349 66.2771358,49.1791015 70.3162901,54.6234498 L70.3162901,54.6234498 Z M92.3140358,0.931180145 L117.574159,0.931180145 L117.574159,50.6810104 C122.545426,46.363079 127.547688,43.1246791 132.581096,40.9657134 C137.614503,38.8067477 142.709976,37.727281 147.867665,37.727281 C157.93448,37.727281 166.416577,41.2316365 173.31421,48.2404527 C179.217589,54.3105881 182.169234,63.2279214 182.169234,74.9927199 L182.169234,142.483527 L157.095533,142.483527 L157.095533,97.7086801 C157.095533,85.8813029 156.536274,77.8713474 155.417739,73.6785735 C154.299204,69.4857995 152.388402,66.3569106 149.685275,64.291813 C146.982149,62.2267154 143.642129,61.1941821 139.665116,61.1941821 C134.507426,61.1941821 130.079958,62.915071 126.382578,66.3569003 C122.685199,69.7987297 120.121928,74.492063 118.692689,80.437041 C117.946999,83.503398 117.574159,90.5121091 117.574159,101.463384 L117.574159,142.483527 L92.3140358,142.483527 L92.3140358,0.931180145 Z M254.407594,37.727281 C263.977283,37.727281 272.972034,40.1365254 281.392117,44.9550865 C289.8122,49.7736477 296.383495,56.3130254 301.106199,64.5734158 C305.828902,72.8338063 308.190219,81.7511395 308.190219,91.3256831 C308.190219,100.962805 305.813367,109.974005 301.059593,118.359553 C296.305819,126.745101 289.827735,133.300123 281.625144,138.024816 C273.422554,142.749509 264.381198,145.11182 254.500805,145.11182 C239.95985,145.11182 227.547404,139.90222 217.263096,129.482864 C206.978788,119.063508 201.836711,106.407153 201.836711,91.5134183 C201.836711,75.5558458 207.646792,62.2580681 219.267128,51.6196865 C229.458225,42.3580365 241.171596,37.727281 254.407594,37.727281 L254.407594,37.727281 Z M254.780438,61.8512553 C246.888551,61.8512553 240.317257,64.620322 235.066356,70.1585383 C229.815456,75.6967546 227.190045,82.7836879 227.190045,91.4195507 C227.190045,100.305728 229.784386,107.502173 234.973145,113.0091 C240.161905,118.516027 246.7332,121.269449 254.687227,121.269449 C262.641254,121.269449 269.259153,118.484738 274.541124,112.915232 C279.823095,107.345726 282.464041,100.180571 282.464041,91.4195507 C282.464041,82.6585305 279.8697,75.5403083 274.680941,70.0646707 C269.492181,64.5890331 262.858746,61.8512553 254.780438,61.8512553 L254.780438,61.8512553 Z M354.236347,40.3555739 L354.236347,51.6196865 C358.834769,46.9888615 363.805961,43.5157949 369.150073,41.2003824 C374.494185,38.8849699 380.211056,37.727281 386.300858,37.727281 C399.536856,37.727281 410.784178,42.7647921 420.043163,52.8399653 C429.302147,62.9151385 433.93157,75.8374495 433.93157,91.6072859 C433.93157,106.813914 429.146798,119.532847 419.577109,129.764467 C410.00742,139.996087 398.666888,145.11182 385.555172,145.11182 C379.713933,145.11182 374.276692,144.063643 369.243284,141.967256 C364.209876,139.870869 359.207614,136.444735 354.236347,131.688753 L354.236347,179.842834 L328.976224,179.842834 L328.976224,40.3555739 L354.236347,40.3555739 Z M380.987843,61.3819173 C372.971675,61.3819173 366.322706,64.1353395 361.040735,69.6422665 C355.758764,75.1491935 353.117818,82.3456378 353.117818,91.2318155 C353.117818,100.305729 355.758764,107.642974 361.040735,113.243769 C366.322706,118.844564 372.971675,121.644919 380.987843,121.644919 C388.755448,121.644919 395.295672,118.79763 400.608714,113.102967 C405.921755,107.408304 408.578236,100.149282 408.578236,91.3256831 C408.578236,82.5646629 405.96836,75.3838629 400.74853,69.7830679 C395.5287,64.1822728 388.94187,61.3819173 380.987843,61.3819173 L380.987843,61.3819173 Z M507.661303,51.5258188 L499.272332,60.255506 C492.312558,53.434426 485.508239,50.0239372 478.85917,50.0239372 C474.633593,50.0239372 471.013943,51.4319372 468.000113,54.2479794 C464.986282,57.0640216 463.47939,60.3493549 463.47939,64.1040778 C463.47939,67.4207498 464.722188,70.5809275 467.207821,73.5847059 C469.693455,76.6510629 474.913206,80.2492851 482.867233,84.3794803 C492.561204,89.4483563 499.148033,94.3294229 502.62792,99.0228266 C506.045666,103.778809 507.754514,109.129209 507.754514,115.074187 C507.754514,123.459735 504.833938,130.562313 498.9927,136.382133 C493.151461,142.201954 485.850022,145.11182 477.088165,145.11182 C471.246926,145.11182 465.66987,143.828976 460.356828,141.263249 C455.043787,138.697521 450.647389,135.161877 447.167502,130.656209 L455.370051,121.269449 C462.019121,128.841473 469.072,132.627429 476.5289,132.627429 C481.74873,132.627429 486.191733,130.937829 489.858042,127.558578 C493.524352,124.179328 495.357479,120.205639 495.357479,115.637393 C495.357479,111.88267 494.145751,108.534759 491.722258,105.593559 C489.298766,102.714938 483.830454,99.0854269 475.31716,94.7049168 C466.182457,89.9489344 459.968467,85.2556011 456.675002,80.6247762 C453.381538,75.9939512 451.734831,70.706129 451.734831,64.761151 C451.734831,57.0013903 454.360241,50.5558793 459.611142,45.4244246 C464.862043,40.2929699 471.495477,37.727281 479.511645,37.727281 C488.83277,37.727281 498.215896,42.3267476 507.661303,51.5258188 L507.661303,51.5258188 Z M519.871916,40.3555739 L533.667112,40.3555739 L568.527947,119.016626 L602.363462,40.3555739 L616.25187,40.3555739 L555.758069,179.842834 L541.962872,179.842834 L561.537138,134.786384 L519.871916,40.3555739 Z M633.123022,40.3555739 L646.172532,40.3555739 L646.172532,58.6597568 C651.392362,51.6509406 657.171373,46.4100518 663.509739,42.9369331 C669.848104,39.4638143 676.745633,37.727281 684.202533,37.727281 C691.783715,37.727281 698.51036,39.6671921 704.382669,43.5470725 C710.254978,47.4269529 714.589236,52.6521972 717.385574,59.2229624 C720.181911,65.7937275 721.580059,76.0251941 721.580059,89.917669 L721.580059,142.483527 L708.62376,142.483527 L708.62376,93.7662408 C708.62376,82.0014422 708.12664,74.1479312 707.132387,70.2054721 C705.578866,63.4469708 702.658291,58.3625264 698.370573,54.9519864 C694.082855,51.5414464 688.490264,49.836202 681.592631,49.836202 C673.700745,49.836202 666.632331,52.4644686 660.387177,57.7210807 C654.142023,62.9776929 650.025255,69.4857817 648.036748,77.2455424 C646.793931,82.3144184 646.172532,91.5759294 646.172532,105.030353 L646.172532,142.483527 L633.123022,142.483527 L633.123022,40.3555739 Z" id="Shape"></path>
                </g>
                <g id="Group" sketch:type="MSShapeGroup">
                    <path d="M25.3723629,66.0779524 C10.0696203,66.0779524 0.348101266,57.4487778 0.00316455696,43.5595714 L0,43.418127 L4.87763713,43.418127 L4.8850211,43.5468095 C5.57911392,54.6135079 13.621308,61.7654921 25.3723629,61.7654921 C29.9799578,61.7654921 45.0105485,60.8136667 45.0105485,48.5718095 C45.0105485,38.5930635 35.4947257,36.6585714 25.4208861,34.6113492 L23.7689873,34.2720952 C11.9609705,31.8675397 2.18670886,28.8514762 2.18670886,16.2820635 C2.18670886,1.17303175 19.5632911,0 24.8871308,0 C39.8396624,0 48.0738397,7.17219048 48.0738397,20.1957143 L48.0738397,20.3350317 L43.1919831,20.3350317 L43.1909283,20.1978413 C43.0822785,9.95322222 36.5812236,4.31139683 24.8871308,4.31139683 C16.2732068,4.31139683 7.06962025,7.45614286 7.06962025,16.2820635 C7.06962025,25.7503333 16.8723629,27.7518254 26.3512658,29.6905714 L27.7046414,29.9660159 C40.2763713,32.4524603 49.8934599,35.4025873 49.8934599,48.5718095 C49.8934599,64.8145238 31.1255274,66.0779524 25.3723629,66.0779524" id="Fill-14"></path>
                    <path d="M104.138186,29.4768095 C103.852321,16.946746 95.9957806,4.31139683 81.471519,4.31139683 C67.8554852,4.31139683 59.7225738,16.944619 58.6909283,29.4768095 L104.138186,29.4768095 L104.138186,29.4768095 Z M81.471519,66.0779524 C64.6592827,66.0779524 53.7974684,53.5404444 53.7974684,34.1370317 C53.7974684,17.1466825 62.3533755,0 81.471519,0 C89.5654008,0 96.1265823,2.59811111 100.972574,7.72201587 C106.670886,13.7466984 109.530591,22.9565397 109.024262,33.6552698 L109.017932,33.7882063 L58.67827,33.7882063 C58.5622363,42.605619 61.3175105,50.5488413 66.2436709,55.6004286 C70.1793249,59.634254 75.4440928,61.7654921 81.471519,61.7654921 C93.1751055,61.7654921 101.469409,54.8113175 103.658228,43.1650159 L103.68038,43.0522857 L108.564346,43.0522857 L108.537975,43.212873 C106.100211,57.9560635 96.4873418,66.0779524 81.471519,66.0779524 L81.471519,66.0779524 Z" id="Fill-15"></path>
                    <path d="M170.886076,64.5975714 L170.886076,1.45485714 L175.768987,1.45485714 L175.768987,15.3983016 L175.894515,15.3983016 C178.379747,7.21898413 188.165612,1.06349206 198.714135,1.06349206 C199.107595,1.06349206 199.503165,1.072 199.900844,1.08901587 L200.0327,1.09539683 L200.0327,6.03 L199.878692,6.01192063 C199.091772,5.91195238 198.277426,5.86196825 197.462025,5.86196825 C194.278481,5.86196825 188.139241,6.67022222 182.765823,12.0876508 C178.025316,16.8669841 175.768987,20.7806349 175.768987,30.089381 L175.768987,64.5975714 L170.886076,64.5975714" id="Fill-16"></path>
                    <path d="M224.738397,66.0779524 C209.435654,66.0779524 199.71308,57.4487778 199.369198,43.5595714 L199.367089,43.418127 L204.245781,43.418127 L204.25211,43.5468095 C204.946203,54.6135079 212.987342,61.7654921 224.738397,61.7654921 C229.345992,61.7654921 244.377637,60.8136667 244.377637,48.5718095 C244.377637,38.5930635 234.860759,36.6585714 224.787975,34.6113492 L223.133966,34.2720952 C211.327004,31.8675397 201.552743,28.8514762 201.552743,16.2820635 C201.552743,1.17303175 218.929325,0 224.254219,0 C239.205696,0 247.440928,7.17219048 247.440928,20.1957143 L247.440928,20.3350317 L242.558017,20.3350317 L242.555907,20.1978413 C242.447257,9.95322222 235.946203,4.31139683 224.254219,4.31139683 C215.640295,4.31139683 206.435654,7.45614286 206.435654,16.2820635 C206.435654,25.7503333 216.238397,27.7518254 225.7173,29.6905714 L227.070675,29.9660159 C239.642405,32.4524603 249.260549,35.4025873 249.260549,48.5718095 C249.260549,64.8145238 230.491561,66.0779524 224.738397,66.0779524" id="Fill-17"></path>
                    <path d="M157.147679,29.1067143 C154.208861,32.1015079 147.844937,32.624746 141.120253,33.1777619 C139.016878,33.3500476 136.841772,33.5287143 134.735232,33.7860794 C122.832278,35.2526349 117.75211,39.5650952 117.75211,48.2038413 C117.75211,56.4416508 124.125527,61.7654921 133.991561,61.7654921 C156.518987,61.7654921 157.147679,40.7115397 157.147679,40.4977778 L157.147679,29.1067143 L157.147679,29.1067143 Z M133.870253,66.0779524 C120.131857,66.0779524 112.869198,59.895873 112.869198,48.2038413 C112.869198,36.7043016 120.409283,30.5796508 135.924051,29.4768095 C156.577004,27.8836984 157.268987,26.7117302 157.268987,16.5256032 C157.268987,13.9455714 154.347046,4.31139683 140.056962,4.31139683 C128.552743,4.31139683 121.616034,10.3711746 121.027426,20.9369683 L121.020042,21.0677778 L116.138186,21.0677778 L116.14346,20.9231429 C116.745781,7.23387302 125.013713,0 140.056962,0 C150.082278,0 162.031646,2.86611111 162.031646,16.5256032 L162.031646,64.6092698 L157.147679,64.6092698 L157.147679,52.1334444 L157.135021,52.1334444 C154.57384,58.5856508 146.96519,66.0779524 133.870253,66.0779524 L133.870253,66.0779524 Z" id="Fill-18"></path>
                </g>
            </g>
        </g>
    </g>
</svg>