<?xml version="1.0" encoding="UTF-8" standalone="no"?>
<svg width="120px" height="120px" viewBox="0 0 120 120" version="1.1" xmlns="http://www.w3.org/2000/svg" xmlns:xlink="http://www.w3.org/1999/xlink" xmlns:sketch="http://www.bohemiancoding.com/sketch/ns">
    <!-- Generator: Sketch 3.2.2 (9983) - http://www.bohemiancoding.com/sketch -->
    <title>Oval 3 + smile</title>
    <desc>Created with Sketch.</desc>
    <defs></defs>
    <g id="app-screens" stroke="none" stroke-width="1" fill="none" fill-rule="evenodd" sketch:type="MSPage">
        <g id="Product-Info-3" sketch:type="MSArtboardGroup" transform="translate(-561.000000, -1321.000000)">
            <g id="Oval-3-+-smile-+-14-of-your-friends-l" sketch:type="MSLayerGroup" transform="translate(330.000000, 1321.000000)">
                <g id="Oval-3-+-smile" transform="translate(231.000000, 0.000000)" sketch:type="MSShapeGroup">
                    <path d="M60,120 C93.137085,120 120,93.137085 120,60 C120,26.862915 93.137085,0 60,0 C26.862915,0 0,26.862915 0,60 C0,93.137085 26.862915,120 60,120 Z" id="Oval-3" fill="#999999"></path>
                    <g id="smile" transform="translate(16.666667, 16.666667)" fill="#FFFFFF">
                        <circle id="Oval" cx="28.3792063" cy="38.6966667" r="3.61730159"></circle>
                        <circle id="Oval" cx="58.2998413" cy="38.6966667" r="3.61730159"></circle>
                        <path d="M43.3333333,86.6666667 C66.8220635,86.6666667 86.6666667,66.8230952 86.6666667,43.3333333 C86.6666667,19.8435714 66.8220635,0 43.3333333,0 C19.8446032,0 0,19.8435714 0,43.3333333 C0,66.8230952 19.8446032,86.6666667 43.3333333,86.6666667 L43.3333333,86.6666667 Z M43.3333333,4.12698413 C64.5852381,4.12698413 82.5396825,22.0814286 82.5396825,43.3333333 C82.5396825,64.5852381 64.5852381,82.5396825 43.3333333,82.5396825 C22.0814286,82.5396825 4.12698413,64.5852381 4.12698413,43.3333333 C4.12698413,22.0814286 22.0814286,4.12698413 43.3333333,4.12698413 L43.3333333,4.12698413 Z" id="Shape"></path>
                        <path d="M43.6825376,70.1575993 C52.3915058,70.1575993 60.3256328,65.8108533 64.3865852,58.8145834 C64.9581725,57.8282342 64.6228551,56.5653771 63.6375376,55.9937898 C62.6522201,55.4222025 61.389363,55.7575199 60.8167439,56.7428374 C57.4914265,62.4721231 50.9264265,66.0306152 43.6825376,66.0306152 C36.4386487,66.0306152 29.872617,62.4721231 26.5462678,56.7428374 C25.9736487,55.7564882 24.7107916,55.4211707 23.7265058,55.9937898 C22.7401566,56.5664088 22.4058709,57.8282342 22.9774582,58.8135517 C27.0384106,65.8108533 34.9725376,70.1575993 43.6825376,70.1575993 L43.6825376,70.1575993 Z" id="Shape"></path>
                    </g>
                </g>
            </g>
        </g>
    </g>
</svg>